<svg xmlns="http://www.w3.org/2000/svg" width="1200" height="760" viewBox="0 0 1200 760">
  <rect width="1200" height="760" fill="#101116"/>
  <rect x="295" y="54" width="610" height="652" rx="18" fill="#101116"/>
  <rect x="318" y="82" width="10" height="34" rx="3" fill="#a78bfa"/>
  <text x="342" y="108" fill="#f5f5f2" font-family="Inter, Arial, sans-serif" font-size="24" font-weight="700">ATS resume checker</text>
  <text x="342" y="137" fill="#a0a0a8" font-family="Inter, Arial, sans-serif" font-size="15">Field-agnostic resume scoring with plain-English feedback.</text>

  <text x="318" y="185" fill="#a0a0a8" font-family="Inter, Arial, sans-serif" font-size="13" font-weight="700" letter-spacing="1">RESUME</text>
  <rect x="318" y="202" width="564" height="92" rx="14" fill="#18191f" stroke="#3c3d47"/>
  <text x="360" y="255" fill="#f5f5f2" font-family="Inter, Arial, sans-serif" font-size="16">Drag and drop file here</text>
  <text x="360" y="278" fill="#a0a0a8" font-family="Inter, Arial, sans-serif" font-size="13">Limit 200MB per file - PDF</text>
  <rect x="720" y="232" width="120" height="34" rx="17" fill="#262832"/>
  <text x="747" y="255" fill="#f5f5f2" font-family="Inter, Arial, sans-serif" font-size="14" font-weight="700">Browse</text>

  <text x="318" y="334" fill="#a0a0a8" font-family="Inter, Arial, sans-serif" font-size="13" font-weight="700" letter-spacing="1">JOB DESCRIPTION</text>
  <rect x="318" y="351" width="564" height="116" rx="14" fill="#18191f" stroke="#2c2d34"/>
  <text x="342" y="386" fill="#7f8290" font-family="Inter, Arial, sans-serif" font-size="15">Paste job description</text>

  <rect x="318" y="494" width="564" height="50" rx="25" fill="#ff8060"/>
  <text x="528" y="526" fill="#1e0c06" font-family="Inter, Arial, sans-serif" font-size="16" font-weight="800">Get ATS feedback</text>

  <rect x="318" y="580" width="564" height="88" rx="14" fill="#181920"/>
  <circle cx="362" cy="624" r="30" fill="none" stroke="#14413a" stroke-width="8"/>
  <path d="M362 594 A30 30 0 1 1 337 640" fill="none" stroke="#2dd4ab" stroke-width="8" stroke-linecap="round"/>
  <text x="348" y="632" fill="#f5f5f2" font-family="Inter, Arial, sans-serif" font-size="18" font-weight="800">72</text>
  <text x="414" y="615" fill="#f5f5f2" font-family="Inter, Arial, sans-serif" font-size="18" font-weight="800">ATS match score</text>
  <text x="414" y="640" fill="#a0a0a8" font-family="Inter, Arial, sans-serif" font-size="14">Keyword overlap, role alignment, structure, and depth.</text>
</svg>
